<svg width="18" height="18" viewBox="0 0 18 18" fill="none" xmlns="http://www.w3.org/2000/svg">
<path fill-rule="evenodd" clip-rule="evenodd" d="M11.0703 12.8523C9.93046 13.6434 8.54613 14.1071 7.05353 14.1071C3.15797 14.1071 0 10.9491 0 7.05353C0 3.15797 3.15797 0 7.05353 0C10.9491 0 14.1071 3.15797 14.1071 7.05353C14.1071 8.54611 13.6434 9.93041 12.8524 11.0703C13.2133 11.1063 13.5645 11.2625 13.841 11.539L17.8534 15.5514C18.0487 15.7467 18.0487 16.0633 17.8534 16.2585L16.2586 17.8534C16.0633 18.0486 15.7467 18.0486 15.5515 17.8534L11.539 13.8409C11.2625 13.5645 11.1063 13.2133 11.0703 12.8523ZM11.3942 7.05353C11.3942 9.45079 9.45079 11.3942 7.05353 11.3942C4.65626 11.3942 2.7129 9.45079 2.7129 7.05353C2.7129 4.65626 4.65626 2.7129 7.05353 2.7129C9.45079 2.7129 11.3942 4.65626 11.3942 7.05353Z" fill="black"/>
</svg>
