<svg width="18" height="18" viewBox="0 0 18 18" fill="none" xmlns="http://www.w3.org/2000/svg">
<path fill-rule="evenodd" clip-rule="evenodd" d="M1 0C0.447715 0 0 0.447715 0 1V3C0 3.55228 0.447716 4 1 4H17C17.5523 4 18 3.55228 18 3V1C18 0.447715 17.5523 0 17 0H1ZM0 8C0 7.44772 0.447715 7 1 7H17C17.5523 7 18 7.44772 18 8V10C18 10.5523 17.5523 11 17 11H1C0.447716 11 0 10.5523 0 10V8ZM0 15C0 14.4477 0.447715 14 1 14H17C17.5523 14 18 14.4477 18 15V17C18 17.5523 17.5523 18 17 18H1C0.447716 18 0 17.5523 0 17V15Z" fill="black"/>
</svg>
